<mxfile host="app.diagrams.net" agent="Mozilla/5.0 (Windows NT 10.0; Win64; x64) AppleWebKit/537.36 (KHTML, like Gecko) Chrome/140.0.0.0 Safari/537.36" version="28.2.5">
  <diagram id="wmjFIb1CSOBKpBsorIso" name="Page-1">
    <mxGraphModel dx="1665" dy="743" grid="1" gridSize="10" guides="1" tooltips="1" connect="1" arrows="1" fold="1" page="1" pageScale="1" pageWidth="850" pageHeight="1100" math="0" shadow="0">
      <root>
        <mxCell id="0" />
        <mxCell id="1" parent="0" />
        <mxCell id="M6gMa4nwTjqrfYxavwPG-1" style="edgeStyle=orthogonalEdgeStyle;rounded=0;orthogonalLoop=1;jettySize=auto;html=1;entryX=0.515;entryY=0.002;entryDx=0;entryDy=0;entryPerimeter=0;curved=1;sketch=1;curveFitting=1;jiggle=2;" edge="1" parent="1" source="M6gMa4nwTjqrfYxavwPG-2" target="M6gMa4nwTjqrfYxavwPG-45">
          <mxGeometry relative="1" as="geometry">
            <mxPoint x="435.5" y="660" as="targetPoint" />
          </mxGeometry>
        </mxCell>
        <mxCell id="M6gMa4nwTjqrfYxavwPG-2" value="" style="whiteSpace=wrap;strokeWidth=2;hachureGap=4;fontFamily=Architects Daughter;fontSource=https%3A%2F%2Ffonts.googleapis.com%2Fcss%3Ffamily%3DArchitects%2BDaughter;fontSize=20;fontStyle=1;sketch=1;curveFitting=1;jiggle=2;" vertex="1" parent="1">
          <mxGeometry x="274.5" y="510" width="340" height="128" as="geometry" />
        </mxCell>
        <mxCell id="M6gMa4nwTjqrfYxavwPG-3" style="edgeStyle=orthogonalEdgeStyle;rounded=0;orthogonalLoop=1;jettySize=auto;html=1;curved=1;sketch=1;curveFitting=1;jiggle=2;fontStyle=1" edge="1" parent="1" source="M6gMa4nwTjqrfYxavwPG-6" target="M6gMa4nwTjqrfYxavwPG-7">
          <mxGeometry relative="1" as="geometry" />
        </mxCell>
        <mxCell id="M6gMa4nwTjqrfYxavwPG-4" style="edgeStyle=orthogonalEdgeStyle;rounded=0;orthogonalLoop=1;jettySize=auto;html=1;entryX=0.5;entryY=0;entryDx=0;entryDy=0;curved=1;exitX=0.5;exitY=1;exitDx=0;exitDy=0;sketch=1;curveFitting=1;jiggle=2;fontStyle=1" edge="1" parent="1" source="M6gMa4nwTjqrfYxavwPG-6" target="M6gMa4nwTjqrfYxavwPG-11">
          <mxGeometry relative="1" as="geometry" />
        </mxCell>
        <mxCell id="M6gMa4nwTjqrfYxavwPG-5" style="rounded=0;orthogonalLoop=1;jettySize=auto;html=1;entryX=0.5;entryY=0;entryDx=0;entryDy=0;edgeStyle=orthogonalEdgeStyle;curved=1;sketch=1;curveFitting=1;jiggle=2;fontStyle=1;hachureGap=4;strokeColor=default;align=center;verticalAlign=middle;fontFamily=Architects Daughter;fontSource=https%3A%2F%2Ffonts.googleapis.com%2Fcss%3Ffamily%3DArchitects%2BDaughter;fontSize=20;fontColor=default;labelBackgroundColor=default;startArrow=none;endArrow=block;" edge="1" parent="1" source="M6gMa4nwTjqrfYxavwPG-6" target="M6gMa4nwTjqrfYxavwPG-13">
          <mxGeometry relative="1" as="geometry" />
        </mxCell>
        <mxCell id="M6gMa4nwTjqrfYxavwPG-6" value="服务渠道升级" style="whiteSpace=wrap;strokeWidth=2;hachureGap=4;fontFamily=Architects Daughter;fontSource=https%3A%2F%2Ffonts.googleapis.com%2Fcss%3Ffamily%3DArchitects%2BDaughter;fontSize=35;fontStyle=1;fillColor=#dae8fc;strokeColor=#6c8ebf;sketch=1;curveFitting=1;jiggle=2;" vertex="1" parent="1">
          <mxGeometry x="740.5" y="230" width="226" height="54" as="geometry" />
        </mxCell>
        <mxCell id="M6gMa4nwTjqrfYxavwPG-7" value="电话 14%" style="whiteSpace=wrap;strokeWidth=2;hachureGap=4;fontFamily=Architects Daughter;fontSource=https%3A%2F%2Ffonts.googleapis.com%2Fcss%3Ffamily%3DArchitects%2BDaughter;fontSize=20;fontStyle=1;sketch=1;curveFitting=1;jiggle=2;" vertex="1" parent="1">
          <mxGeometry x="815.5" y="384" width="123" height="54" as="geometry" />
        </mxCell>
        <mxCell id="M6gMa4nwTjqrfYxavwPG-8" value="全球18个客服中心超1000人" style="whiteSpace=wrap;strokeWidth=2;hachureGap=4;fontFamily=Architects Daughter;fontSource=https%3A%2F%2Ffonts.googleapis.com%2Fcss%3Ffamily%3DArchitects%2BDaughter;fontSize=20;fontStyle=1;sketch=1;curveFitting=1;jiggle=2;" vertex="1" parent="1">
          <mxGeometry x="749.5" y="525" width="254" height="54" as="geometry" />
        </mxCell>
        <mxCell id="M6gMa4nwTjqrfYxavwPG-9" value="在线客服 80%" style="whiteSpace=wrap;strokeWidth=2;hachureGap=4;fontFamily=Architects Daughter;fontSource=https%3A%2F%2Ffonts.googleapis.com%2Fcss%3Ffamily%3DArchitects%2BDaughter;fontSize=20;fontStyle=1;sketch=1;curveFitting=1;jiggle=2;" vertex="1" parent="1">
          <mxGeometry x="357" y="384" width="155" height="54" as="geometry" />
        </mxCell>
        <mxCell id="M6gMa4nwTjqrfYxavwPG-10" value="LLM AI Agent：传统Chatbot的升级" style="whiteSpace=wrap;strokeWidth=2;hachureGap=4;fontFamily=Architects Daughter;fontSource=https%3A%2F%2Ffonts.googleapis.com%2Fcss%3Ffamily%3DArchitects%2BDaughter;fontSize=20;fontStyle=1;fillColor=#d5e8d4;strokeColor=#82b366;sketch=1;curveFitting=1;jiggle=2;" vertex="1" parent="1">
          <mxGeometry x="309.5" y="535" width="260" height="78" as="geometry" />
        </mxCell>
        <mxCell id="M6gMa4nwTjqrfYxavwPG-11" value="In-App Call 5%" style="whiteSpace=wrap;strokeWidth=2;hachureGap=4;fontFamily=Architects Daughter;fontSource=https%3A%2F%2Ffonts.googleapis.com%2Fcss%3Ffamily%3DArchitects%2BDaughter;fontSize=20;fontStyle=1;sketch=1;curveFitting=1;jiggle=2;" vertex="1" parent="1">
          <mxGeometry x="1035.5" y="384" width="161" height="54" as="geometry" />
        </mxCell>
        <mxCell id="M6gMa4nwTjqrfYxavwPG-12" value="忠实客户" style="whiteSpace=wrap;strokeWidth=2;hachureGap=4;fontFamily=Architects Daughter;fontSource=https%3A%2F%2Ffonts.googleapis.com%2Fcss%3Ffamily%3DArchitects%2BDaughter;fontSize=20;fontStyle=1;sketch=1;curveFitting=1;jiggle=2;" vertex="1" parent="1">
          <mxGeometry x="1053.5" y="525" width="124" height="54" as="geometry" />
        </mxCell>
        <mxCell id="M6gMa4nwTjqrfYxavwPG-13" value="电子邮件 1%" style="whiteSpace=wrap;strokeWidth=2;hachureGap=4;fontFamily=Architects Daughter;fontSource=https%3A%2F%2Ffonts.googleapis.com%2Fcss%3Ffamily%3DArchitects%2BDaughter;fontSize=20;fontStyle=1;sketch=1;curveFitting=1;jiggle=2;" vertex="1" parent="1">
          <mxGeometry x="1246.5" y="384" width="147" height="54" as="geometry" />
        </mxCell>
        <mxCell id="M6gMa4nwTjqrfYxavwPG-14" value="非紧急事项&#xa;会员账户相关" style="whiteSpace=wrap;strokeWidth=2;hachureGap=4;fontFamily=Architects Daughter;fontSource=https%3A%2F%2Ffonts.googleapis.com%2Fcss%3Ffamily%3DArchitects%2BDaughter;fontSize=20;fontStyle=1;sketch=1;curveFitting=1;jiggle=2;" vertex="1" parent="1">
          <mxGeometry x="1237.5" y="526.5" width="165" height="95" as="geometry" />
        </mxCell>
        <mxCell id="M6gMa4nwTjqrfYxavwPG-15" value="" style="curved=1;startArrow=none;endArrow=block;exitX=0.5;exitY=1;entryX=0.5;entryY=0;rounded=0;hachureGap=4;fontFamily=Architects Daughter;fontSource=https%3A%2F%2Ffonts.googleapis.com%2Fcss%3Ffamily%3DArchitects%2BDaughter;fontSize=20;fontStyle=1;sketch=1;curveFitting=1;jiggle=2;" edge="1" parent="1" source="M6gMa4nwTjqrfYxavwPG-7" target="M6gMa4nwTjqrfYxavwPG-8">
          <mxGeometry relative="1" as="geometry">
            <Array as="points" />
          </mxGeometry>
        </mxCell>
        <mxCell id="M6gMa4nwTjqrfYxavwPG-16" value="" style="curved=1;startArrow=none;endArrow=block;exitX=0;exitY=0.67;entryX=0.5;entryY=0;rounded=0;hachureGap=4;fontFamily=Architects Daughter;fontSource=https%3A%2F%2Ffonts.googleapis.com%2Fcss%3Ffamily%3DArchitects%2BDaughter;fontSize=20;fontStyle=1;sketch=1;curveFitting=1;jiggle=2;" edge="1" parent="1" source="M6gMa4nwTjqrfYxavwPG-6" target="M6gMa4nwTjqrfYxavwPG-9">
          <mxGeometry relative="1" as="geometry">
            <Array as="points">
              <mxPoint x="435.5" y="322" />
            </Array>
          </mxGeometry>
        </mxCell>
        <mxCell id="M6gMa4nwTjqrfYxavwPG-17" value="" style="curved=1;startArrow=none;endArrow=block;exitX=0.5;exitY=1;entryX=0.5;entryY=0;rounded=0;hachureGap=4;fontFamily=Architects Daughter;fontSource=https%3A%2F%2Ffonts.googleapis.com%2Fcss%3Ffamily%3DArchitects%2BDaughter;fontSize=20;fontStyle=1;sketch=1;curveFitting=1;jiggle=2;" edge="1" parent="1" source="M6gMa4nwTjqrfYxavwPG-9" target="M6gMa4nwTjqrfYxavwPG-10">
          <mxGeometry relative="1" as="geometry">
            <Array as="points" />
          </mxGeometry>
        </mxCell>
        <mxCell id="M6gMa4nwTjqrfYxavwPG-18" value="" style="curved=1;startArrow=none;endArrow=block;exitX=0.5;exitY=1;entryX=0.5;entryY=0;rounded=0;hachureGap=4;fontFamily=Architects Daughter;fontSource=https%3A%2F%2Ffonts.googleapis.com%2Fcss%3Ffamily%3DArchitects%2BDaughter;fontSize=20;fontStyle=1;sketch=1;curveFitting=1;jiggle=2;" edge="1" parent="1" source="M6gMa4nwTjqrfYxavwPG-11" target="M6gMa4nwTjqrfYxavwPG-12">
          <mxGeometry relative="1" as="geometry">
            <Array as="points" />
          </mxGeometry>
        </mxCell>
        <mxCell id="M6gMa4nwTjqrfYxavwPG-19" value="" style="curved=1;startArrow=none;endArrow=block;exitX=0.5;exitY=1;entryX=0.5;entryY=0;rounded=0;hachureGap=4;fontFamily=Architects Daughter;fontSource=https%3A%2F%2Ffonts.googleapis.com%2Fcss%3Ffamily%3DArchitects%2BDaughter;fontSize=20;fontStyle=1;sketch=1;curveFitting=1;jiggle=2;" edge="1" parent="1" source="M6gMa4nwTjqrfYxavwPG-13" target="M6gMa4nwTjqrfYxavwPG-14">
          <mxGeometry relative="1" as="geometry">
            <Array as="points" />
          </mxGeometry>
        </mxCell>
        <mxCell id="M6gMa4nwTjqrfYxavwPG-20" value="" style="whiteSpace=wrap;strokeWidth=2;hachureGap=4;fontFamily=Architects Daughter;fontSource=https%3A%2F%2Ffonts.googleapis.com%2Fcss%3Ffamily%3DArchitects%2BDaughter;fillColor=#dae8fc;strokeColor=#6c8ebf;fontSize=20;sketch=1;curveFitting=1;jiggle=2;" vertex="1" parent="1">
          <mxGeometry x="1230" y="929" width="1880" height="328" as="geometry" />
        </mxCell>
        <mxCell id="M6gMa4nwTjqrfYxavwPG-21" value="客服成本分析" style="whiteSpace=wrap;strokeWidth=2;hachureGap=4;fontFamily=Architects Daughter;fontSource=https%3A%2F%2Ffonts.googleapis.com%2Fcss%3Ffamily%3DArchitects%2BDaughter;fontSize=35;fontStyle=1;fillColor=#dae8fc;strokeColor=#6c8ebf;sketch=1;curveFitting=1;jiggle=2;" vertex="1" parent="1">
          <mxGeometry x="2022.5" y="613" width="295" height="63" as="geometry" />
        </mxCell>
        <mxCell id="M6gMa4nwTjqrfYxavwPG-22" value="全球多中心人力成本 65%&#xa;&#xa;优化方向: 全球人力套利, 提升高端技能人效" style="whiteSpace=wrap;strokeWidth=2;hachureGap=4;fontFamily=Architects Daughter;fontSource=https%3A%2F%2Ffonts.googleapis.com%2Fcss%3Ffamily%3DArchitects%2BDaughter;fontSize=20;fontStyle=1;sketch=1;curveFitting=1;jiggle=2;" vertex="1" parent="1">
          <mxGeometry x="1420" y="753" width="260" height="126" as="geometry" />
        </mxCell>
        <mxCell id="M6gMa4nwTjqrfYxavwPG-23" value="外包与采购成本 15%&#xa;&#xa;优化方向: 建立全球外包网络, 引入竞争" style="whiteSpace=wrap;strokeWidth=2;hachureGap=4;fontFamily=Architects Daughter;fontSource=https%3A%2F%2Ffonts.googleapis.com%2Fcss%3Ffamily%3DArchitects%2BDaughter;fontSize=20;fontStyle=1;sketch=1;curveFitting=1;jiggle=2;" vertex="1" parent="1">
          <mxGeometry x="2040" y="753" width="260" height="126" as="geometry" />
        </mxCell>
        <mxCell id="M6gMa4nwTjqrfYxavwPG-24" value="技术与基础设施成本 20%&#xa;&#xa;优化方向: 投资AI与自动化, 降低单位互动成本" style="whiteSpace=wrap;strokeWidth=2;hachureGap=4;fontFamily=Architects Daughter;fontSource=https%3A%2F%2Ffonts.googleapis.com%2Fcss%3Ffamily%3DArchitects%2BDaughter;fontSize=20;fontStyle=1;sketch=1;curveFitting=1;jiggle=2;" vertex="1" parent="1">
          <mxGeometry x="2660" y="753" width="260" height="126" as="geometry" />
        </mxCell>
        <mxCell id="M6gMa4nwTjqrfYxavwPG-25" value="多区域中心人力成本&#xa;爱丁堡, 首尔, 新加坡&#xa;优化: 覆盖多语言与高端客群, 提升满意度溢价" style="whiteSpace=wrap;strokeWidth=2;hachureGap=4;fontFamily=Architects Daughter;fontSource=https%3A%2F%2Ffonts.googleapis.com%2Fcss%3Ffamily%3DArchitects%2BDaughter;fontSize=20;fontStyle=1;sketch=1;curveFitting=1;jiggle=2;" vertex="1" parent="1">
          <mxGeometry x="1265" y="954" width="260" height="126" as="geometry" />
        </mxCell>
        <mxCell id="M6gMa4nwTjqrfYxavwPG-26" value="全球外包人力成本&#xa;马尼拉, 里斯本, 波哥大&#xa;优化: 利用时区/语言/成本优势, 提供24/7服务" style="whiteSpace=wrap;strokeWidth=2;hachureGap=4;fontFamily=Architects Daughter;fontSource=https%3A%2F%2Ffonts.googleapis.com%2Fcss%3Ffamily%3DArchitects%2BDaughter;fontSize=20;fontStyle=1;sketch=1;curveFitting=1;jiggle=2;" vertex="1" parent="1">
          <mxGeometry x="1575" y="954" width="260" height="126" as="geometry" />
        </mxCell>
        <mxCell id="M6gMa4nwTjqrfYxavwPG-27" value="全球云通信与SaaS服务费&#xa;优化: 与大型云服务商签全球框架协议, 统一管理" style="whiteSpace=wrap;strokeWidth=2;hachureGap=4;fontFamily=Architects Daughter;fontSource=https%3A%2F%2Ffonts.googleapis.com%2Fcss%3Ffamily%3DArchitects%2BDaughter;fontSize=20;fontStyle=1;sketch=1;curveFitting=1;jiggle=2;" vertex="1" parent="1">
          <mxGeometry x="1885" y="966" width="260" height="102" as="geometry" />
        </mxCell>
        <mxCell id="M6gMa4nwTjqrfYxavwPG-28" value="本地化合作供应商采购&#xa;优化: 各地区采购本地化服务如支付/短信, 降低成本" style="whiteSpace=wrap;strokeWidth=2;hachureGap=4;fontFamily=Architects Daughter;fontSource=https%3A%2F%2Ffonts.googleapis.com%2Fcss%3Ffamily%3DArchitects%2BDaughter;fontSize=20;fontStyle=1;sketch=1;curveFitting=1;jiggle=2;" vertex="1" parent="1">
          <mxGeometry x="2195" y="966" width="260" height="102" as="geometry" />
        </mxCell>
        <mxCell id="M6gMa4nwTjqrfYxavwPG-29" value="AI与自动化研发摊销&#xa;优化: 投资多语言LLM大模型, 持续提升自助解决率" style="whiteSpace=wrap;strokeWidth=2;hachureGap=4;fontFamily=Architects Daughter;fontSource=https%3A%2F%2Ffonts.googleapis.com%2Fcss%3Ffamily%3DArchitects%2BDaughter;fontSize=20;fontStyle=1;sketch=1;curveFitting=1;jiggle=2;" vertex="1" parent="1">
          <mxGeometry x="2505" y="966" width="260" height="102" as="geometry" />
        </mxCell>
        <mxCell id="M6gMa4nwTjqrfYxavwPG-30" value="全球系统license与云资源&#xa;优化: 统一技术栈, 利用云服务弹性伸缩, 避免浪费" style="whiteSpace=wrap;strokeWidth=2;hachureGap=4;fontFamily=Architects Daughter;fontSource=https%3A%2F%2Ffonts.googleapis.com%2Fcss%3Ffamily%3DArchitects%2BDaughter;fontSize=20;fontStyle=1;sketch=1;curveFitting=1;jiggle=2;" vertex="1" parent="1">
          <mxGeometry x="2815" y="966" width="260" height="102" as="geometry" />
        </mxCell>
        <mxCell id="M6gMa4nwTjqrfYxavwPG-31" value="根本性优化&#xa;  &#xa;1. 完善产品体验，减少咨询&#xa;2. 化被动应对为主动提前通知" style="whiteSpace=wrap;strokeWidth=2;hachureGap=4;fontFamily=Architects Daughter;fontSource=https%3A%2F%2Ffonts.googleapis.com%2Fcss%3Ffamily%3DArchitects%2BDaughter;fontSize=20;fontStyle=1;fillColor=#fff2cc;strokeColor=#d6b656;sketch=1;curveFitting=1;jiggle=2;" vertex="1" parent="1">
          <mxGeometry x="1966.25" y="1105" width="407.5" height="142" as="geometry" />
        </mxCell>
        <mxCell id="M6gMa4nwTjqrfYxavwPG-32" value="" style="curved=1;startArrow=none;endArrow=block;exitX=0;exitY=0.66;entryX=0.5;entryY=0;rounded=0;hachureGap=4;fontFamily=Architects Daughter;fontSource=https%3A%2F%2Ffonts.googleapis.com%2Fcss%3Ffamily%3DArchitects%2BDaughter;fontSize=20;fontStyle=1;sketch=1;curveFitting=1;jiggle=2;" edge="1" parent="1" source="M6gMa4nwTjqrfYxavwPG-21" target="M6gMa4nwTjqrfYxavwPG-22">
          <mxGeometry relative="1" as="geometry">
            <Array as="points">
              <mxPoint x="1550" y="728" />
            </Array>
          </mxGeometry>
        </mxCell>
        <mxCell id="M6gMa4nwTjqrfYxavwPG-33" value="" style="curved=1;startArrow=none;endArrow=block;exitX=0.5;exitY=1;entryX=0.5;entryY=0;rounded=0;hachureGap=4;fontFamily=Architects Daughter;fontSource=https%3A%2F%2Ffonts.googleapis.com%2Fcss%3Ffamily%3DArchitects%2BDaughter;fontSize=20;fontStyle=1;sketch=1;curveFitting=1;jiggle=2;" edge="1" parent="1" source="M6gMa4nwTjqrfYxavwPG-21" target="M6gMa4nwTjqrfYxavwPG-23">
          <mxGeometry relative="1" as="geometry">
            <Array as="points" />
          </mxGeometry>
        </mxCell>
        <mxCell id="M6gMa4nwTjqrfYxavwPG-34" value="" style="curved=1;startArrow=none;endArrow=block;exitX=1;exitY=0.66;entryX=0.5;entryY=0;rounded=0;hachureGap=4;fontFamily=Architects Daughter;fontSource=https%3A%2F%2Ffonts.googleapis.com%2Fcss%3Ffamily%3DArchitects%2BDaughter;fontSize=20;fontStyle=1;sketch=1;curveFitting=1;jiggle=2;" edge="1" parent="1" source="M6gMa4nwTjqrfYxavwPG-21" target="M6gMa4nwTjqrfYxavwPG-24">
          <mxGeometry relative="1" as="geometry">
            <Array as="points">
              <mxPoint x="2790" y="728" />
            </Array>
          </mxGeometry>
        </mxCell>
        <mxCell id="M6gMa4nwTjqrfYxavwPG-35" value="" style="curved=1;startArrow=none;endArrow=block;exitX=0.07;exitY=1;entryX=0.5;entryY=0;rounded=0;hachureGap=4;fontFamily=Architects Daughter;fontSource=https%3A%2F%2Ffonts.googleapis.com%2Fcss%3Ffamily%3DArchitects%2BDaughter;fontSize=20;fontStyle=1;sketch=1;curveFitting=1;jiggle=2;" edge="1" parent="1" source="M6gMa4nwTjqrfYxavwPG-22" target="M6gMa4nwTjqrfYxavwPG-25">
          <mxGeometry relative="1" as="geometry">
            <Array as="points">
              <mxPoint x="1395" y="904" />
            </Array>
          </mxGeometry>
        </mxCell>
        <mxCell id="M6gMa4nwTjqrfYxavwPG-36" value="" style="curved=1;startArrow=none;endArrow=block;exitX=0.93;exitY=1;entryX=0.5;entryY=0;rounded=0;hachureGap=4;fontFamily=Architects Daughter;fontSource=https%3A%2F%2Ffonts.googleapis.com%2Fcss%3Ffamily%3DArchitects%2BDaughter;fontSize=20;fontStyle=1;sketch=1;curveFitting=1;jiggle=2;" edge="1" parent="1" source="M6gMa4nwTjqrfYxavwPG-22" target="M6gMa4nwTjqrfYxavwPG-26">
          <mxGeometry relative="1" as="geometry">
            <Array as="points">
              <mxPoint x="1705" y="904" />
            </Array>
          </mxGeometry>
        </mxCell>
        <mxCell id="M6gMa4nwTjqrfYxavwPG-37" value="" style="curved=1;startArrow=none;endArrow=block;exitX=0.07;exitY=1;entryX=0.5;entryY=0;rounded=0;hachureGap=4;fontFamily=Architects Daughter;fontSource=https%3A%2F%2Ffonts.googleapis.com%2Fcss%3Ffamily%3DArchitects%2BDaughter;fontSize=20;fontStyle=1;sketch=1;curveFitting=1;jiggle=2;" edge="1" parent="1" source="M6gMa4nwTjqrfYxavwPG-23" target="M6gMa4nwTjqrfYxavwPG-27">
          <mxGeometry relative="1" as="geometry">
            <Array as="points">
              <mxPoint x="2015" y="904" />
            </Array>
          </mxGeometry>
        </mxCell>
        <mxCell id="M6gMa4nwTjqrfYxavwPG-38" value="" style="curved=1;startArrow=none;endArrow=block;exitX=0.93;exitY=1;entryX=0.5;entryY=0;rounded=0;hachureGap=4;fontFamily=Architects Daughter;fontSource=https%3A%2F%2Ffonts.googleapis.com%2Fcss%3Ffamily%3DArchitects%2BDaughter;fontSize=20;fontStyle=1;sketch=1;curveFitting=1;jiggle=2;" edge="1" parent="1" source="M6gMa4nwTjqrfYxavwPG-23" target="M6gMa4nwTjqrfYxavwPG-28">
          <mxGeometry relative="1" as="geometry">
            <Array as="points">
              <mxPoint x="2325" y="904" />
            </Array>
          </mxGeometry>
        </mxCell>
        <mxCell id="M6gMa4nwTjqrfYxavwPG-39" value="" style="curved=1;startArrow=none;endArrow=block;exitX=0.07;exitY=1;entryX=0.5;entryY=0;rounded=0;hachureGap=4;fontFamily=Architects Daughter;fontSource=https%3A%2F%2Ffonts.googleapis.com%2Fcss%3Ffamily%3DArchitects%2BDaughter;fontSize=20;fontStyle=1;sketch=1;curveFitting=1;jiggle=2;" edge="1" parent="1" source="M6gMa4nwTjqrfYxavwPG-24" target="M6gMa4nwTjqrfYxavwPG-29">
          <mxGeometry relative="1" as="geometry">
            <Array as="points">
              <mxPoint x="2635" y="904" />
            </Array>
          </mxGeometry>
        </mxCell>
        <mxCell id="M6gMa4nwTjqrfYxavwPG-40" value="" style="curved=1;startArrow=none;endArrow=block;exitX=0.93;exitY=1;entryX=0.5;entryY=0;rounded=0;hachureGap=4;fontFamily=Architects Daughter;fontSource=https%3A%2F%2Ffonts.googleapis.com%2Fcss%3Ffamily%3DArchitects%2BDaughter;fontSize=20;fontStyle=1;sketch=1;curveFitting=1;jiggle=2;" edge="1" parent="1" source="M6gMa4nwTjqrfYxavwPG-24" target="M6gMa4nwTjqrfYxavwPG-30">
          <mxGeometry relative="1" as="geometry">
            <Array as="points">
              <mxPoint x="2945" y="904" />
            </Array>
          </mxGeometry>
        </mxCell>
        <mxCell id="M6gMa4nwTjqrfYxavwPG-41" style="edgeStyle=orthogonalEdgeStyle;rounded=0;hachureGap=4;orthogonalLoop=1;jettySize=auto;html=1;fontFamily=Architects Daughter;fontSource=https%3A%2F%2Ffonts.googleapis.com%2Fcss%3Ffamily%3DArchitects%2BDaughter;entryX=0;entryY=0.5;entryDx=0;entryDy=0;fontSize=20;sketch=1;curveFitting=1;jiggle=2;" edge="1" parent="1" source="M6gMa4nwTjqrfYxavwPG-42" target="M6gMa4nwTjqrfYxavwPG-20">
          <mxGeometry relative="1" as="geometry">
            <mxPoint x="1040" y="1097" as="targetPoint" />
          </mxGeometry>
        </mxCell>
        <mxCell id="M6gMa4nwTjqrfYxavwPG-42" value="&lt;font&gt;&lt;b style=&quot;background-color: light-dark(#ffffff, var(--ge-dark-color, #121212));&quot;&gt;优化策略&lt;/b&gt;&lt;/font&gt;" style="rounded=1;whiteSpace=wrap;html=1;hachureGap=4;fontFamily=Architects Daughter;fontSource=https%3A%2F%2Ffonts.googleapis.com%2Fcss%3Ffamily%3DArchitects%2BDaughter;fillColor=#dae8fc;strokeColor=#6c8ebf;fontSize=20;sketch=1;curveFitting=1;jiggle=2;" vertex="1" parent="1">
          <mxGeometry x="1060" y="925" width="120" height="336" as="geometry" />
        </mxCell>
        <mxCell id="M6gMa4nwTjqrfYxavwPG-43" value="&lt;i style=&quot;color: rgb(175, 8, 8);&quot;&gt;*2025Q1财报：AI客服机器人已处理超过80%的咨询&lt;/i&gt;" style="text;html=1;align=center;verticalAlign=middle;whiteSpace=wrap;rounded=0;fontFamily=Architects Daughter;fontSource=https%3A%2F%2Ffonts.googleapis.com%2Fcss%3Ffamily%3DArchitects%2BDaughter;fontSize=18;sketch=1;curveFitting=1;jiggle=2;" vertex="1" parent="1">
          <mxGeometry x="230" y="460" width="410" height="30" as="geometry" />
        </mxCell>
        <UserObject label="&lt;span style=&quot;color: rgb(0, 0, 0); font-family: &amp;quot;Architects Daughter&amp;quot;; font-size: 25px; font-style: normal; font-variant-ligatures: normal; font-variant-caps: normal; font-weight: 700; letter-spacing: normal; orphans: 2; text-align: center; text-indent: 0px; text-transform: none; widows: 2; word-spacing: 0px; -webkit-text-stroke-width: 0px; white-space: normal; text-decoration-thickness: initial; text-decoration-style: initial; text-decoration-color: initial; float: none; display: inline !important;&quot;&gt;&lt;i style=&quot;font-size: 18px; font-weight: 400; color: rgb(175, 8, 8);&quot;&gt;Trip.com全球客服中心23年度总成本估算8-12亿美元&lt;/i&gt;&lt;/span&gt;" link="&lt;span style=&quot;color: rgb(0, 0, 0); font-family: &amp;quot;Architects Daughter&amp;quot;; font-size: 25px; font-style: normal; font-variant-ligatures: normal; font-variant-caps: normal; font-weight: 700; letter-spacing: normal; orphans: 2; text-align: center; text-indent: 0px; text-transform: none; widows: 2; word-spacing: 0px; -webkit-text-stroke-width: 0px; white-space: normal; background-color: rgb(236, 236, 236); text-decoration-thickness: initial; text-decoration-style: initial; text-decoration-color: initial; display: inline !important; float: none;&quot;&gt;Trip.com全球客服中心23年度总成本&lt;/span&gt;&lt;br style=&quot;forced-color-adjust: none; padding: 0px; margin: 0px; color: rgb(0, 0, 0); font-family: &amp;quot;Architects Daughter&amp;quot;; font-size: 25px; font-style: normal; font-variant-ligatures: normal; font-variant-caps: normal; font-weight: 700; letter-spacing: normal; orphans: 2; text-align: center; text-indent: 0px; text-transform: none; widows: 2; word-spacing: 0px; -webkit-text-stroke-width: 0px; white-space: normal; background-color: rgb(236, 236, 236); text-decoration-thickness: initial; text-decoration-style: initial; text-decoration-color: initial;&quot;&gt;&lt;span style=&quot;color: rgb(0, 0, 0); font-family: &amp;quot;Architects Daughter&amp;quot;; font-size: 25px; font-style: normal; font-variant-ligatures: normal; font-variant-caps: normal; font-weight: 700; letter-spacing: normal; orphans: 2; text-align: center; text-indent: 0px; text-transform: none; widows: 2; word-spacing: 0px; -webkit-text-stroke-width: 0px; white-space: normal; background-color: rgb(236, 236, 236); text-decoration-thickness: initial; text-decoration-style: initial; text-decoration-color: initial; display: inline !important; float: none;&quot;&gt;估算 8-12 亿美元&lt;/span&gt;" id="M6gMa4nwTjqrfYxavwPG-44">
          <mxCell style="text;whiteSpace=wrap;html=1;fontFamily=Architects Daughter;fontSource=https%3A%2F%2Ffonts.googleapis.com%2Fcss%3Ffamily%3DArchitects%2BDaughter;fontSize=18;fontColor=default;sketch=1;curveFitting=1;jiggle=2;" vertex="1" parent="1">
            <mxGeometry x="1950" y="685" width="440" height="50" as="geometry" />
          </mxCell>
        </UserObject>
        <mxCell id="M6gMa4nwTjqrfYxavwPG-45" value="核心价值：&#xa;1. 多模态理解能力：文本，图片，语音，视频&#xa;2. 上下文关联&#xa;3. 多语言与文化适应&#xa;4. 实时信息 &amp; 知识库&#xa;5. 识别用户情绪，调整回复语气和策略&#xa;6.主动服务，提前预警" style="whiteSpace=wrap;strokeWidth=2;hachureGap=4;fontFamily=Architects Daughter;fontSource=https%3A%2F%2Ffonts.googleapis.com%2Fcss%3Ffamily%3DArchitects%2BDaughter;fontSize=20;fontStyle=1;sketch=1;curveFitting=1;jiggle=2;fillColor=#dae8fc;strokeColor=#6c8ebf;" vertex="1" parent="1">
          <mxGeometry x="282.5" y="740" width="472" height="190" as="geometry" />
        </mxCell>
      </root>
    </mxGraphModel>
  </diagram>
</mxfile>
